<svg xmlns="http://www.w3.org/2000/svg" width="193.806" height="61.557" viewBox="0 0 193.806 61.557">
  <g id="Group_450142" data-name="Group 450142" transform="translate(-768.948 -25.531)">
    <path id="Path_35678" data-name="Path 35678" d="M312.916,292.495h-6.208v-9.906h6.208c3.454,0,5.461,1.7,5.461,4.883,0,3.271-2.007,5.023-5.461,5.023m7.748,5.111c3.781-1.934,5.834-5.526,5.834-10.412,0-7.187-4.947-11.33-13.629-11.33h-14.7v32.3h8.543v-8.938h6.347l4.761,8.938h9.662Z" transform="translate(471.368 -236.635)"/>
    <path id="Path_35679" data-name="Path 35679" d="M407.267,297.176a12.223,12.223,0,0,1-8.122,3.778,9.127,9.127,0,0,1,0-18.247,11.2,11.2,0,0,1,8.122,4.238l4.948-5.849A18.9,18.9,0,0,0,399,275.567c-9.986,0-17.5,7-17.5,16.308,0,9.491,7.328,16.586,17.179,16.586a19.686,19.686,0,0,0,13.582-5.986Z" transform="translate(453.408 -236.571)"/>
    <path id="Path_35680" data-name="Path 35680" d="M466.707,261.045h-9.9l-22.916,25.168V272.669H425.35V311.6h8.544V297.086l4.2-4.608,8.5,12.488h10.221L443.93,286.03Z" transform="translate(443.956 -233.441)"/>
    <path id="Path_35681" data-name="Path 35681" d="M479.2,295.995l4.577-11.518,4.479,11.518Zm9.2-20.132h-8.78l-14.048,32.3h8.773l2.288-5.712H490.78l2.238,5.712h9.1Z" transform="translate(435.287 -236.635)"/>
    <path id="Path_35682" data-name="Path 35682" d="M524.454,300.972V275.863H515.91v32.3h22.4v-7.188Z" transform="translate(424.438 -236.635)"/>
    <path id="Path_35683" data-name="Path 35683" d="M358.977,282.492h0Z" transform="translate(458.261 -238.064)"/>
    <path id="Path_35684" data-name="Path 35684" d="M353.14,266.884a7.33,7.33,0,0,0,1.212,3.265c-5.969-.176-7.861-2.587-7.861-2.587a6.186,6.186,0,0,1,6.649-.678" transform="translate(460.952 -234.554)"/>
    <path id="Path_35685" data-name="Path 35685" d="M357.281,273.575a20.938,20.938,0,0,0-4.537-.161,6.223,6.223,0,0,1-6.969-4.863c2.979,2.757,6.976,2.475,8.512,2.236a11.462,11.462,0,0,0,3,2.788" transform="translate(461.107 -235.059)"/>
    <path id="Path_35686" data-name="Path 35686" d="M372.806,281.275c-.136-.33-2.022-4.939-8.215-8.115-.391-.2-.772-.4-1.139-.591l-.023-.011c-3.638-1.916-6.167-3.572-6.918-6.455-.467-1.767-.263-3.995.755-7.023a39.306,39.306,0,0,1,15.54,22.2" transform="translate(458.844 -233.018)"/>
    <path id="Path_35687" data-name="Path 35687" d="M528.992,269.262V260.83H480l-7.347,8.432Z" transform="translate(433.762 -233.395)"/>
    <rect id="Rectangle_2855" data-name="Rectangle 2855" width="81.545" height="3.226" transform="translate(881.208 74.935)"/>
    <rect id="Rectangle_2856" data-name="Rectangle 2856" width="95.891" height="3.226" transform="translate(769.776 74.935)"/>
    <path id="Path_35688" data-name="Path 35688" d="M521.7,333.521h-.768l-.035-4.67h.768Zm-1.755-.938a.882.882,0,0,1-.988.938h-.775v-.7h.5a.463.463,0,0,0,.5-.5c0-.447-.008-1.025-.015-1.732-.008-.8-.015-1.386-.015-1.74h.768c.007.332.007.953.015,1.869.007.78.015,1.4.015,1.862m-4.406-2.281h-.709v-.729h.709Zm-.534-.953h-.7v-.722h.7Zm-.526.953h-.709v-.729h.709Zm3.89,3.22h-.716a.727.727,0,0,1-.424-.151.887.887,0,0,1-.33-.433.928.928,0,0,1-.973.686,1.011,1.011,0,0,1-.98-.57.931.931,0,0,1-.928.57,1.023,1.023,0,0,1-.857-.375v.274h-1.7l.007-.7h.937c-.007-.974-.015-1.544-.015-1.724h.768v1.076a.837.837,0,0,0,.2.512.637.637,0,0,0,.482.195c.3,0,.446-.166.446-.491,0-.1,0-.533-.007-1.291h.768c0,.2.007.526.014.981a.849.849,0,0,0,.212.606.619.619,0,0,0,.475.195c.3,0,.446-.158.446-.483,0,.021,0-.476-.007-1.509h.768c0,.252.007.657.014,1.212a.75.75,0,0,0,.235.542.554.554,0,0,0,.395.18h.768Zm-10.6.967a1.542,1.542,0,0,0,1.6-1.559v-2.043h.775v1.2a.754.754,0,0,0,.636.729h.811v.7h-.761a.765.765,0,0,1-.679-.447,2.049,2.049,0,0,1-1.9,2.014c-.109-.144-.271-.347-.483-.6m.123-.967h-3.781v-.707h2.976a1.417,1.417,0,0,0-.475-.917,1.346,1.346,0,0,0-.892-.3,2.024,2.024,0,0,0-1.09.339l-.285-.592,1.967-1.956.54.528-1,.974a1.764,1.764,0,0,1,1.6.808,3.339,3.339,0,0,1,.439,1.826m-3.642,0h-1.69v-.7h1.69Zm-2.855-3.754h-.7v-.729h.7Zm-.511,2.274-.008-.592a.6.6,0,0,0-.526-.331c-.336,0-.491.195-.468.577a.324.324,0,0,0,.359.347Zm-.549-2.274h-.7v-.729h.7Zm2.362,3.754h-1.039a.686.686,0,0,1-.774-.78h-.914c-.579,0-.871-.346-.871-1.047a1.374,1.374,0,0,1,.373-1.039.943.943,0,0,1,.679-.295.857.857,0,0,1,.709.317h.015v-.26h.768l.007,2.043c0,.238.1.361.3.361h.745Zm-5.676,0h-.768l-.037-4.67h.768Zm-1.756-.938a.882.882,0,0,1-.988.938h-.775v-.7h.5a.464.464,0,0,0,.5-.5c0-.447-.007-1.025-.015-1.732-.007-.8-.015-1.386-.015-1.74h.768c.007.332.007.953.015,1.869.008.78.015,1.4.015,1.862m-1.625.938h-1.689v-.7h1.689Zm-2.9-2.051a1.788,1.788,0,0,0-1.083-.288,1.973,1.973,0,0,0-.806.166,2.233,2.233,0,0,1,1.163.9,2.843,2.843,0,0,0,.725-.781m1.352,2.051h-1.5a.94.94,0,0,1-.746-.347,2.667,2.667,0,0,1-1.258.347H487.32v-.7h1.265a2.1,2.1,0,0,0,.834-.18,2.379,2.379,0,0,0-1.6-.989v-.592a3.057,3.057,0,0,1,1.829-.584,3.018,3.018,0,0,1,2.084.786,4.8,4.8,0,0,1-1.221,1.487.942.942,0,0,0,.431.072H492.1Zm-4.645,0H485.76v-.7h1.691Zm-1.552,0H485a.719.719,0,0,1-.519-.209.847.847,0,0,1-.249-.643l-.022-3.819h.774l.03,3.515c0,.26.132.454.336.454h.548Zm-2.64-.938a.881.881,0,0,1-.987.938H481.5v-.7h.5a.463.463,0,0,0,.5-.5c0-.447-.007-1.025-.015-1.732-.007-.8-.014-1.386-.014-1.74h.768c.007.332.007.953.014,1.869.008.78.015,1.4.015,1.862m-1.624.938h-1.689v-.7h1.689Zm-2.927-.7a.777.777,0,0,0-.19-.54.526.526,0,0,0-.4-.181.489.489,0,0,0-.395.181.813.813,0,0,0-.169.54.784.784,0,0,0,.19.549.526.526,0,0,0,.4.18c.322,0,.563-.259.563-.729m1.367.7h-.752a1.191,1.191,0,0,1-1.185.657,1.293,1.293,0,0,1-1.207-.657h-.841v-.7h.652a1.249,1.249,0,0,1,1.338-1.357,1.352,1.352,0,0,1,1.4,1.357h.6Zm-3.847,0h-1.689v-.7h1.689Zm-1.55,0h-1.691v-.7h1.691Zm-2.451,1.1h-.7v-.729h.7Zm-1.054,0h-.71v-.729h.71Zm1.953-1.1h-.652a.721.721,0,0,1-.562-.274,1.062,1.062,0,0,1-.183-.311.962.962,0,0,1-.907.584h-1.156v-.7h.862a.656.656,0,0,0,.38-.115.43.43,0,0,0,.228-.389l-.016-1.429h.768q0,.4.023,1.126a.812.812,0,0,0,.226.606.533.533,0,0,0,.4.2h.586v.7Zm-3.322,0h-1.689v-.7H469.8Zm-2.853-3.754h-.7v-.729h.7Zm-.512,2.274-.006-.592a.607.607,0,0,0-.527-.331c-.337,0-.49.195-.468.577a.323.323,0,0,0,.358.347Zm-.548-2.274h-.7v-.729h.7Zm2.363,3.754h-1.039a.686.686,0,0,1-.775-.78h-.914c-.578,0-.87-.346-.87-1.047a1.38,1.38,0,0,1,.372-1.039.948.948,0,0,1,.681-.295.857.857,0,0,1,.709.317h.016v-.26h.767l.007,2.043c0,.238.1.361.3.361h.746Zm-5.677-.938a.882.882,0,0,1-.988.938h-.775v-.7h.5a.463.463,0,0,0,.5-.5c0-.447-.008-1.025-.014-1.732-.009-.8-.016-1.386-.016-1.74h.768c.007.332.007.953.016,1.869.006.78.014,1.4.014,1.862m-1.625.938h-.613a.825.825,0,0,1-.738-.584.987.987,0,0,1-.914.584h-.827v-.7h.533a.569.569,0,0,0,.608-.5l-.03-3.479h.768c0,.533.028,2.959.036,3.176a.76.76,0,0,0,.629.808h.548Zm-4.309-2.051a1.782,1.782,0,0,0-1.081-.288,1.965,1.965,0,0,0-.8.166,2.228,2.228,0,0,1,1.163.9,2.791,2.791,0,0,0,.723-.781M458,333.521h-1.5a.941.941,0,0,1-.746-.347,2.662,2.662,0,0,1-1.258.347h-1.272v-.7h1.265a2.1,2.1,0,0,0,.834-.18,2.382,2.382,0,0,0-1.6-.989v-.592a3.055,3.055,0,0,1,1.828-.584,3.018,3.018,0,0,1,2.085.786,4.8,4.8,0,0,1-1.221,1.487.935.935,0,0,0,.431.072H458Zm-4.645,0h-1.689v-.7h1.689Zm-1.55,0h-1.69v-.7h1.69Zm-1.551,0h-1.689v-.7h1.689ZM447.2,330.3h-.709v-.729h.709Zm-2.325,4.187a1.542,1.542,0,0,0,1.6-1.559v-2.043h.775v1.2a.755.755,0,0,0,.636.729h.813v.7h-.761a.766.766,0,0,1-.681-.447,2.047,2.047,0,0,1-1.9,2.014c-.11-.144-.271-.347-.483-.6m.123-1.429a2,2,0,0,1-.57,1.436,1.859,1.859,0,0,1-2.735,0,2,2,0,0,1-.571-1.443l-.03-1.473h.783c0,.555,0,1.054.008,1.487a1.228,1.228,0,0,0,.344.873,1.117,1.117,0,0,0,1.66,0,1.235,1.235,0,0,0,.351-.887l-.05-4.28h.782Z" transform="translate(440.564 -248.007)"/>
    <path id="Path_35689" data-name="Path 35689" d="M300.494,332.673l-.671-1.783-.658,1.783Zm1.811,1.9h-1.07l-.426-1.09h-1.946l-.4,1.09h-1.043l1.9-4.8h1.039Z" transform="translate(471.529 -248.253)"/>
    <path id="Path_35690" data-name="Path 35690" d="M304.347,334.583v-4.765h.982v3.956h2.445v.809Z" transform="translate(470.036 -248.264)"/>
    <path id="Path_35691" data-name="Path 35691" d="M313.983,332.673l-.67-1.783-.658,1.783Zm1.811,1.9h-1.07l-.426-1.09h-1.945l-.4,1.09h-1.043l1.9-4.8h1.039Z" transform="translate(468.622 -248.253)"/>
    <path id="Path_35692" data-name="Path 35692" d="M317.837,334.583v-4.765h.982v3.956h2.445v.809Z" transform="translate(467.128 -248.264)"/>
    <path id="Path_35693" data-name="Path 35693" d="M325.542,332.673l-.671-1.783-.657,1.783Zm1.811,1.9h-1.07l-.426-1.09H323.91l-.4,1.09h-1.043l1.9-4.8H325.4Z" transform="translate(466.131 -248.253)"/>
    <path id="Path_35694" data-name="Path 35694" d="M329.342,334.572v-4.8h1.472l.882,3.278.874-3.278h1.474v4.8h-.912V330.79l-.966,3.782h-.947l-.963-3.782v3.782Z" transform="translate(464.649 -248.253)"/>
    <rect id="Rectangle_2857" data-name="Rectangle 2857" width="0.984" height="4.804" transform="translate(799.64 81.515)"/>
    <path id="Path_35695" data-name="Path 35695" d="M341.435,332.673l-.671-1.783-.657,1.783Zm1.811,1.9h-1.07l-.426-1.09H339.8l-.4,1.09h-1.043l1.9-4.8H341.3Z" transform="translate(462.705 -248.253)"/>
    <path id="Path_35696" data-name="Path 35696" d="M347.347,334.572v-4.8h3.338v.812H348.33v1.138h2.033v.812H348.33v2.042Z" transform="translate(460.768 -248.253)"/>
    <path id="Path_35697" data-name="Path 35697" d="M353.4,332.144a1.781,1.781,0,0,0,.382,1.238,1.327,1.327,0,0,0,1.935,0,1.825,1.825,0,0,0,.376-1.254,1.79,1.79,0,0,0-.367-1.232,1.371,1.371,0,0,0-1.954,0,1.8,1.8,0,0,0-.372,1.24m-1.013.035a3.007,3.007,0,0,1,.223-1.233,2.262,2.262,0,0,1,.453-.659,1.9,1.9,0,0,1,.629-.434,2.692,2.692,0,0,1,1.049-.189,2.3,2.3,0,0,1,1.722.659,2.911,2.911,0,0,1,.006,3.653,2.589,2.589,0,0,1-3.441,0,2.462,2.462,0,0,1-.641-1.8" transform="translate(459.682 -248.231)"/>
    <path id="Path_35698" data-name="Path 35698" d="M360.366,331.8h.73a3.8,3.8,0,0,0,.882-.059.532.532,0,0,0,.277-.2.632.632,0,0,0,.1-.362.568.568,0,0,0-.13-.391.6.6,0,0,0-.37-.19c-.079-.01-.319-.016-.716-.016h-.77Zm-.982,2.772v-4.8h2.07a3.5,3.5,0,0,1,1.133.131,1.1,1.1,0,0,1,.568.459,1.386,1.386,0,0,1,.21.757,1.271,1.271,0,0,1-.322.894,1.557,1.557,0,0,1-.961.444,2.323,2.323,0,0,1,.526.4,5.371,5.371,0,0,1,.559.78l.595.936h-1.176l-.711-1.043a6.811,6.811,0,0,0-.519-.708.743.743,0,0,0-.3-.2,1.62,1.62,0,0,0-.493-.055h-.2v2.005Z" transform="translate(458.174 -248.253)"/>
    <rect id="Rectangle_2858" data-name="Rectangle 2858" width="0.983" height="4.804" transform="translate(824.327 81.515)"/>
    <path id="Path_35699" data-name="Path 35699" d="M370.474,334.572v-4.8h.955l1.993,3.21v-3.21h.914v4.8h-.987l-1.963-3.133v3.133Z" transform="translate(455.784 -248.253)"/>
    <path id="Path_35700" data-name="Path 35700" d="M376.405,332.988l.958-.092a1.133,1.133,0,0,0,.349.7,1.069,1.069,0,0,0,.712.222,1.1,1.1,0,0,0,.716-.2.584.584,0,0,0,.242-.463.432.432,0,0,0-.1-.29.81.81,0,0,0-.353-.208c-.115-.042-.377-.109-.787-.211a2.652,2.652,0,0,1-1.109-.476,1.246,1.246,0,0,1-.238-1.653,1.323,1.323,0,0,1,.609-.486,2.476,2.476,0,0,1,.958-.166,2.076,2.076,0,0,1,1.38.4,1.387,1.387,0,0,1,.486,1.057l-.983.042a.815.815,0,0,0-.271-.532,1,1,0,0,0-.621-.162,1.146,1.146,0,0,0-.671.173.352.352,0,0,0-.157.3.366.366,0,0,0,.145.29,2.625,2.625,0,0,0,.9.322,4.66,4.66,0,0,1,1.061.346,1.325,1.325,0,0,1,.538.488,1.424,1.424,0,0,1,.2.765,1.4,1.4,0,0,1-.233.773,1.386,1.386,0,0,1-.658.536,2.771,2.771,0,0,1-1.059.177,2.128,2.128,0,0,1-1.418-.423,1.824,1.824,0,0,1-.591-1.226" transform="translate(454.505 -248.231)"/>
    <path id="Path_35701" data-name="Path 35701" d="M382.5,329.768h.983v2.6a5.394,5.394,0,0,0,.037.8.771.771,0,0,0,.3.473,1.042,1.042,0,0,0,.65.18.994.994,0,0,0,.632-.17.651.651,0,0,0,.256-.414,5.5,5.5,0,0,0,.043-.815v-2.659h.983v2.525a6.451,6.451,0,0,1-.079,1.222,1.361,1.361,0,0,1-.294.6,1.494,1.494,0,0,1-.573.393,2.537,2.537,0,0,1-.937.144,2.758,2.758,0,0,1-1.058-.158,1.508,1.508,0,0,1-.568-.414,1.307,1.307,0,0,1-.276-.531,5.754,5.754,0,0,1-.1-1.22Z" transform="translate(453.193 -248.253)"/>
    <path id="Path_35702" data-name="Path 35702" d="M388.8,334.583v-4.765h.982v3.956h2.445v.809Z" transform="translate(451.833 -248.264)"/>
    <path id="Path_35703" data-name="Path 35703" d="M396.507,332.673l-.672-1.783-.658,1.783Zm1.811,1.9h-1.071l-.425-1.09h-1.946l-.4,1.09h-1.043l1.9-4.8h1.039Z" transform="translate(450.836 -248.253)"/>
    <path id="Path_35704" data-name="Path 35704" d="M400.691,334.572V330.58h-1.446v-.812h3.87v.812h-1.441v3.992Z" transform="translate(449.583 -248.253)"/>
    <rect id="Rectangle_2859" data-name="Rectangle 2859" width="0.983" height="4.804" transform="translate(853.303 81.515)"/>
    <path id="Path_35705" data-name="Path 35705" d="M408.155,332.144a1.785,1.785,0,0,0,.381,1.238,1.254,1.254,0,0,0,.97.421,1.24,1.24,0,0,0,.965-.417,1.817,1.817,0,0,0,.377-1.254,1.79,1.79,0,0,0-.367-1.232,1.371,1.371,0,0,0-1.955,0,1.8,1.8,0,0,0-.372,1.24m-1.013.035a3.007,3.007,0,0,1,.223-1.233,2.275,2.275,0,0,1,.453-.659,1.907,1.907,0,0,1,.63-.434,2.7,2.7,0,0,1,1.049-.189,2.3,2.3,0,0,1,1.722.659,2.917,2.917,0,0,1,.005,3.653,2.588,2.588,0,0,1-3.44,0,2.459,2.459,0,0,1-.642-1.8" transform="translate(447.881 -248.231)"/>
    <path id="Path_35706" data-name="Path 35706" d="M414.154,334.572v-4.8h.955l1.993,3.21v-3.21h.914v4.8h-.986l-1.964-3.133v3.133Z" transform="translate(446.369 -248.253)"/>
    <path id="Path_35707" data-name="Path 35707" d="M373.116,281.149c0-.009,0-.01,0-.019-.081-.57-2.319-15.264-15.416-22.558,0,0,17.848-3.61,15.42,22.577" transform="translate(458.538 -232.872)"/>
    <path id="Path_35708" data-name="Path 35708" d="M367.618,293.512c-.131,0-.158-.119-.162-.233a6.14,6.14,0,0,0-.467-1.763,5.059,5.059,0,0,1-.308-1.7,13.23,13.23,0,0,0-1.3-4.939,16.825,16.825,0,0,0-1.389-2.033c-.065-.11-.242-.232-.142-.339.132-.141.251.034.348.144a13.487,13.487,0,0,1,1.451,1.982c.467.781.668,1.7,1.13,2.479a8.321,8.321,0,0,1,.657,2.315,19,19,0,0,1,.3,3.85c0,.107.038.237-.12.237m-16.573-3.055c0,.038-.011.079-.015.117H350.1c-.039,0-.1-.014-.116-.041-.34-.793-1.172-.662-1.724-1.051a.4.4,0,0,0-.451.057.338.338,0,0,1-.432.031,1.149,1.149,0,0,1,.934-.324,6.062,6.062,0,0,1,2.732,1.211m.744.351c.155-.02.308-.039.464-.061.413-.068.691.3,1.057.366a.13.13,0,0,1,.073.187.124.124,0,0,1-.185.06c-.3-.163-.544-.006-.819.1-.328.125-.654-.138-1-.1-.058.009-.086-.082-.069-.144.011-.038.054-.1.077-.092.228.023.479.1.4-.315m2.652.517c0,.136-.151.214-.289.218a.273.273,0,0,1-.309-.248c-.007-.2.166-.1.263-.129.123.038.328-.062.336.159m9.311,8.563a19.547,19.547,0,0,0-1.7,2.425.094.094,0,0,1-.073.024l0,.007a2.577,2.577,0,0,1-1.563,1.766,3.661,3.661,0,0,1-.93.5,1.931,1.931,0,0,0-1.079.781,2.289,2.289,0,0,1-.854.759c-.282.159-.579.293-.85.468a2.367,2.367,0,0,1-1.342.446c-.038.533-.447.286-.7.373a1.747,1.747,0,0,1-.7.072,2.661,2.661,0,0,1-1.3.553,3.254,3.254,0,0,1-1.532.018c-.378-.061-.139-.3-.046-.414a6.779,6.779,0,0,0,.848-1.487,3.941,3.941,0,0,0,.2-1.717c.007-.194-.154-.275-.294-.362-.253-.163-.57-.209-.785-.45a1.919,1.919,0,0,1-1.1-.907,2.493,2.493,0,0,1-.711-1.054,5.459,5.459,0,0,0-.937-1.228c-.251-.183-.146-.589-.012-.845a.565.565,0,0,0,.055-.495.939.939,0,0,1,.61-1.2,1,1,0,0,1,.478-.668c.293-.166.367-.959.177-1.4-.053-.126-.119-.243-.177-.366-.086-.159-.073-.4-.343-.395-.231.007-.471-.035-.555.281-.031.111-.121.176-.189.119-.429-.344-1.062-.328-1.359-.883a.348.348,0,0,1-.02-.093,1.054,1.054,0,0,1-.566-.655,1.826,1.826,0,0,0-.8-1.047,1.787,1.787,0,0,1-1.427-.9.724.724,0,0,0-.776-.4,1.083,1.083,0,0,1-1.107-.548c-.213-.206-.541-.253-.664-.568-.2-.278-.513-.453-.656-.785l-.1-.071c.034-.179.074-.358.112-.537a1.134,1.134,0,0,1-.051-.553.318.318,0,0,1-.042-.373.83.83,0,0,1-.042-.456c-.02-.076-.042-.154-.063-.23a.2.2,0,0,1-.093-.242c-.011-.059-.023-.115-.034-.172a.147.147,0,0,1-.027-.2c-.016-.087-.031-.179-.05-.268-.1-.078-.089-.182-.055-.289-.093-.213.042-.418.024-.632-.011-.164-.015-.318-.235-.256-.02.058-.039.118-.057.176a4.723,4.723,0,0,0,.15,1.489,2.057,2.057,0,0,1-.02.907c-.031.106-.011.271-.173.266-.132-.008-.124-.149-.154-.248-.027-.084-.054-.17-.081-.259,0-.073-.009-.144-.013-.221-.081-.041-.066-.075.013-.1,0-.042,0-.081.007-.122a.2.2,0,0,1,.062-.256.243.243,0,0,0-.132-.191c-.181-.042-.169-.14-.069-.268.027-.03.058-.056.085-.086v-.053a.193.193,0,0,1,.031,0c.251-5.389,9.238-9.865,11.637-9.266.055-.148.164-.172.3-.2a8.193,8.193,0,0,1,4.311.686c.127-.023.251-.035.312.122.116-.008.212.015.239.156.136.1.213.221.039.346-.119.089-.2.168-.093.32l.035.011a.45.45,0,0,1,.216.431.7.7,0,0,1-.537-.195,2.256,2.256,0,0,1-1.512-.762,3.854,3.854,0,0,0-1.909-.854c-.109.172-.232,0-.351.02s-.3-.08-.34.156l-.017.031c.472.023.85.358,1.3.434.078.012.159.126.105.152-.169.095-.162.366-.374.4a.978.978,0,0,1-.513-.049,2.528,2.528,0,0,0-.9-.2c.086-.186.309-.235.293-.457-.559-.286-1.154-.046-1.729-.144-.049.045-.1.095-.158.14-.213.407-.61.4-.966.483a.77.77,0,0,0-.671.492c-.085.236-.054.392.22.4.444.01.764.414,1.215.421.121,0,.121.148.089.26-.053.17.046.293.113.425.417.21.467.195.481-.275a.423.423,0,0,1,.279-.4c.223-.115.459-.214.262-.563-.063-.111.069-.179.134-.253-.018-.335.108-.369.418-.342.451.038.747.453,1.187.46.228-.1.457-.169.664.049a.513.513,0,0,1,.344.3c.02.026.043.057.061.083l.07.092a1.34,1.34,0,0,0,.721.365c.519.078.785.477,1.035.9.093.163.186.331.279.494l.127.013c.1-.07.17-.013.228.076.185.045.185.14.035.228a.649.649,0,0,1-.424,0,.527.527,0,0,1-.583-.087,1.133,1.133,0,0,0-.05-.111c-.053-.08-.05-.142.039-.183.011-.065.023-.129.035-.191,0-.1-.012-.2-.015-.293-.02,0-.032-.009-.032-.027-.239.007-.467.152-.709.049l-.166.011-.023.011-.027-.007a.471.471,0,0,1-.567.081,2.349,2.349,0,0,0-.821.2c-.077.107-.086.2.046.271l.385-.056c.112-.133.224-.214.321.014a.138.138,0,0,1,.1.214c.016.06.027.122.042.182a.909.909,0,0,0,.752.053c.105-.023.217-.034.248.1a.19.19,0,0,1-.162.233,2.278,2.278,0,0,0-.764.406c-.143.089-.358.1-.328-.083.093-.525-.246-.114-.34-.2-.288.212-.659.27-.817.727-.064.2-.524.248-.806.365l-.035.009a.571.571,0,0,1-.389.2,2.563,2.563,0,0,1-.645.956c-.1.069-.058.136,0,.224.209.321.119.507-.238.557-.31.164-.611.33-.919.486a1.134,1.134,0,0,0-.679,1.357c.05.365.108.73.139,1.1.007.122.011.3-.132.361-.127.059-.2-.075-.3-.14a.994.994,0,0,1-.426-1.062.415.415,0,0,0-.5-.508.665.665,0,0,1-.6-.147c-.089-.008-.154-.126-.259-.073-.471.009-.891.4-1.389.206-.319-.011-.64-.022-.961-.031-.045.053-.089.142-.146.158-.806.246-1.008.963-1.181,1.7a1.625,1.625,0,0,1-.093.355c-.325.635,0,1.116.347,1.576a.97.97,0,0,0,1.609-.152,1.431,1.431,0,0,1,1.324-.469c.143.065.177.165.065.279a4.721,4.721,0,0,0-.78,1.669c-.189.468.262.129.337.28a.426.426,0,0,1,.431.111c.143.023.286.042.429.06a.2.2,0,0,1,.235.1c.358.073.428.306.324.644-.027.088-.042.179-.062.266-.224.976-.2,1.033.548,1.631.154.125.3.066.447.072.394.027.811-.072,1.138.266a.072.072,0,0,1,.07.034c.116,0,.231,0,.348,0,.053-.018.111-.034.165-.053.266-.289.3-.879.876-.781.293-.152.588-.3.93-.483a3.07,3.07,0,0,0-.041.887c.018.115.053.224.18.2a.17.17,0,0,0,.115-.25c-.2-.5.424-.29.44-.6.181.031.262.163.321.327,0,.031,0,.057,0,.088l.231.045c.235.007.478-.083.7.087l.355.058c.119-.016.238-.031.358-.049a1.381,1.381,0,0,1,1.459.521.54.54,0,0,0,.513.154c.193-.013.382.045.431.227.105.366.413.484.641.7a2.4,2.4,0,0,0,.682-.024,1.434,1.434,0,0,1,1.331.648c.1.415.563.815.046,1.261a.173.173,0,0,0-.038.243c.077.092.158.028.228-.027.207-.167.4-.339.559.073.053.133.166-.031.246-.069a.617.617,0,0,1,.842.331c.042.1.073.237.2.172.22-.11.463-.042.679-.118.343-.118.664-.225.906.179.016.022.054.027.081.035.151.053.409-.133.445.125a1.128,1.128,0,0,1-.178.877m-4.893-21.256a1.292,1.292,0,0,1-.853-.407c.344-.137.49-.077.853.407m9.083,6.563a16.412,16.412,0,1,0,1.582,6.991,16.165,16.165,0,0,0-1.582-6.991" transform="translate(463.171 -236.608)"/>
  </g>
</svg>
